<?xml version="1.0" encoding="utf-8"?>
<!-- Generator: Adobe Illustrator 17.0.0, SVG Export Plug-In . SVG Version: 6.00 Build 0)  -->
<!DOCTYPE svg PUBLIC "-//W3C//DTD SVG 1.1//EN" "http://www.w3.org/Graphics/SVG/1.1/DTD/svg11.dtd">
<svg version="1.1" id="图层_1" xmlns="http://www.w3.org/2000/svg" xmlns:xlink="http://www.w3.org/1999/xlink" x="0px" y="0px"
	 width="132.053px" height="133.056px" viewBox="0 0 132.053 133.056" enable-background="new 0 0 132.053 133.056"
	 xml:space="preserve">
<g id="图层_1_1_">
	<circle fill="none" stroke="#99CCFF" stroke-width="9" stroke-miterlimit="10" cx="67.866" cy="64.4" r="51.763"/>
</g>
<g id="图层_2">
	<path fill="#99CCFF" d="M103.206,86.601c-4.521,7.614-14.555,11.2-14.555,5.452V42.94c0-6.8,0.567-7.367,7.556-7.367v-3.022H74.201
		v3.022c6.139,0,6.611,0.472,6.611,7.273v21.251L54.81,64.085l0.029-21.204c0-6.706,0.472-7.273,6.611-7.273v-3.022
		c0,0-13.631-0.642-20.677,2.754c-6.663,3.212-9.518,13.563-9.518,13.563c0.402-0.119,0.402-0.119,1.19-0.476
		C36.966,40.813,47,37.227,47,42.975v49.113c0,6.8-0.567,7.367-7.556,7.367v3.022H61.45v-3.022c-6.139,0-6.611-0.472-6.611-7.273
		L54.81,67.957l26.002,0.011v24.179c0,6.706-0.472,7.273-6.611,7.273v3.022c0,0,13.631,0.642,20.677-2.754
		c6.663-3.212,9.518-13.563,9.518-13.563C103.994,86.244,103.994,86.244,103.206,86.601z"/>
</g>
<g id="图层_3">
</g>
</svg>
